<svg width="252" height="182" viewBox="0 0 252 182" fill="none" xmlns="http://www.w3.org/2000/svg">
<rect width="252" height="182" rx="10" fill="#5D5FEF" fill-opacity="0.05"/>
<rect x="85.2042" y="30.3253" width="82.4819" height="91.3494" rx="9.6747" stroke="#C1C5D6" stroke-opacity="0.4" stroke-width="0.650602"/>
<path fill-rule="evenodd" clip-rule="evenodd" d="M111.253 42.1938H133.511L152.346 61.8544V100.035C152.346 104.816 148.487 108.7 143.705 108.7H111.253C106.496 108.7 102.612 104.816 102.612 100.035V50.8348C102.612 46.0774 106.496 42.1938 111.253 42.1938Z" fill="#E31019"/>
<path opacity="0.302" fill-rule="evenodd" clip-rule="evenodd" d="M133.487 42.1943V61.685H152.347L133.487 42.1943Z" fill="white"/>
<path d="M115.925 90.8636V80.3636H117.695V81.6264H117.799C117.892 81.4408 118.023 81.2436 118.192 81.0348C118.361 80.8227 118.589 80.642 118.878 80.4929C119.166 80.3404 119.534 80.2642 119.982 80.2642C120.571 80.2642 121.103 80.415 121.577 80.7166C122.055 81.0149 122.433 81.4574 122.711 82.044C122.993 82.6274 123.134 83.3433 123.134 84.1918C123.134 85.0303 122.996 85.7429 122.721 86.3295C122.446 86.9162 122.071 87.3636 121.597 87.6719C121.123 87.9801 120.586 88.1342 119.987 88.1342C119.549 88.1342 119.186 88.0613 118.898 87.9155C118.609 87.7696 118.377 87.594 118.202 87.3885C118.029 87.1797 117.895 86.9825 117.799 86.7969H117.724V90.8636H115.925ZM117.69 84.1818C117.69 84.6757 117.759 85.1082 117.898 85.4794C118.041 85.8506 118.245 86.1406 118.51 86.3494C118.778 86.5549 119.103 86.6577 119.484 86.6577C119.882 86.6577 120.215 86.5516 120.484 86.3395C120.752 86.1241 120.954 85.8307 121.09 85.4595C121.229 85.085 121.299 84.6591 121.299 84.1818C121.299 83.7079 121.231 83.2869 121.095 82.919C120.959 82.5511 120.757 82.2628 120.489 82.054C120.22 81.8452 119.885 81.7408 119.484 81.7408C119.1 81.7408 118.773 81.8419 118.505 82.044C118.237 82.2462 118.033 82.5296 117.893 82.8942C117.758 83.2588 117.69 83.688 117.69 84.1818ZM127.509 88.1342C126.909 88.1342 126.372 87.9801 125.898 87.6719C125.424 87.3636 125.049 86.9162 124.774 86.3295C124.499 85.7429 124.362 85.0303 124.362 84.1918C124.362 83.3433 124.501 82.6274 124.779 82.044C125.061 81.4574 125.44 81.0149 125.918 80.7166C126.395 80.415 126.927 80.2642 127.513 80.2642C127.961 80.2642 128.329 80.3404 128.617 80.4929C128.906 80.642 129.134 80.8227 129.303 81.0348C129.472 81.2436 129.603 81.4408 129.696 81.6264H129.771V77.8182H131.575V88H129.805V86.7969H129.696C129.603 86.9825 129.469 87.1797 129.293 87.3885C129.118 87.594 128.886 87.7696 128.597 87.9155C128.309 88.0613 127.946 88.1342 127.509 88.1342ZM128.011 86.6577C128.392 86.6577 128.717 86.5549 128.985 86.3494C129.254 86.1406 129.457 85.8506 129.597 85.4794C129.736 85.1082 129.805 84.6757 129.805 84.1818C129.805 83.688 129.736 83.2588 129.597 82.8942C129.461 82.5296 129.259 82.2462 128.99 82.044C128.725 81.8419 128.398 81.7408 128.011 81.7408C127.61 81.7408 127.275 81.8452 127.006 82.054C126.738 82.2628 126.536 82.5511 126.4 82.919C126.264 83.2869 126.196 83.7079 126.196 84.1818C126.196 84.6591 126.264 85.085 126.4 85.4595C126.539 85.8307 126.743 86.1241 127.011 86.3395C127.283 86.5516 127.616 86.6577 128.011 86.6577ZM137.361 80.3636V81.7557H132.847V80.3636H137.361ZM133.975 88V79.6428C133.975 79.129 134.081 78.7015 134.294 78.3601C134.509 78.0187 134.797 77.7635 135.159 77.5945C135.52 77.4254 135.921 77.3409 136.362 77.3409C136.673 77.3409 136.95 77.3658 137.192 77.4155C137.434 77.4652 137.613 77.5099 137.729 77.5497L137.371 78.9418C137.295 78.9186 137.199 78.8954 137.083 78.8722C136.967 78.8456 136.837 78.8324 136.695 78.8324C136.36 78.8324 136.123 78.9136 135.984 79.076C135.848 79.2351 135.78 79.4638 135.78 79.7621V88H133.975Z" fill="white"/>
</svg>
